<svg width="131" height="20" viewBox="0 0 131 20" fill="none" xmlns="http://www.w3.org/2000/svg" >
<path fill-rule="evenodd" clip-rule="evenodd" d="M125.144 12.0619L131 6.07245H125.811L121.363 10.8758L121.374 3.57371C121.374 1.43987 119.581 0 117.705 0H117.134V19.5375H121.363V13.4765L125.555 19.5375H131L125.144 12.0619Z" fill="white"/>
<path fill-rule="evenodd" clip-rule="evenodd" d="M46.4299 9.21096V6.06824H44.1942V2.70752H40.1186V6.06824H38.0815V9.21096H40.1186V15.0007C40.1186 16.8371 41.6745 19.5614 45.0456 19.5614L46.4271 19.5186L46.4325 16.011C46.2861 16.0238 46.1985 16.0285 46.1659 16.0285C44.9962 16.0285 44.1942 15.0918 44.1942 14.1054V9.21096H46.4299Z" fill="white"/>
<path fill-rule="evenodd" clip-rule="evenodd" d="M33.4102 11.3423C33.1319 9.81109 31.7482 8.70557 30.1767 8.70557C28.6825 8.70557 27.2311 9.72361 26.9434 11.3423H33.4102ZM37.3192 14.0432H26.8735C26.9435 15.5169 28.2858 17.0021 30.1767 17.0021C31.1626 17.0021 32.3951 16.5022 33.0695 15.3284H36.953C36.5186 16.5653 35.5208 17.836 34.3733 18.6616C33.1532 19.5342 31.7283 19.9635 30.2253 19.9635C28.2133 19.9635 26.4959 19.2676 25.0736 17.876C23.6434 16.4925 22.9678 14.6058 22.9678 12.8108C22.9678 10.9824 23.6271 9.21178 25.0251 7.8044C26.4394 6.37342 28.2601 5.64307 30.1967 5.64307C32.1191 5.64307 33.9789 6.37342 35.3772 7.8044C36.7427 9.21178 37.4856 11.0046 37.4257 12.9816C37.4163 13.2879 37.3749 13.7616 37.3192 14.0432Z" fill="white"/>
<path fill-rule="evenodd" clip-rule="evenodd" d="M17.333 9.63475C17.333 7.50091 19.126 6.06104 21.0021 6.06104H21.4035V19.5614H17.3439L17.333 9.63475Z" fill="white"/>
<path fill-rule="evenodd" clip-rule="evenodd" d="M48.0771 9.63475C48.0771 7.50091 49.8699 6.06104 51.7463 6.06104H52.1476V19.5614H48.0877L48.0771 9.63475Z" fill="white"/>
<path fill-rule="evenodd" clip-rule="evenodd" d="M62.9002 19.5584V11.3985C62.9002 10.3368 62.0579 9.22937 60.6793 9.22937C58.9756 9.22937 58.3586 10.5632 58.3586 11.4637V19.5584H54.2188V6.08943H58.0786V7.52291H58.1396C58.8866 6.53541 60.3226 5.63428 62.0354 5.63428C65.1271 5.63428 67.04 8.10247 67.04 10.4657V19.5584H62.9002Z" fill="white"/>
<path fill-rule="evenodd" clip-rule="evenodd" d="M95.1087 15.2523C94.4748 15.9074 93.6767 16.2348 92.7146 16.2348C91.7835 16.2348 90.9929 15.9035 90.3438 15.2403C89.7099 14.5855 89.3931 13.7882 89.3931 12.8491C89.3931 11.8705 89.6982 11.0535 90.3084 10.3981C90.9341 9.71967 91.7287 9.38004 92.6909 9.38004C93.6613 9.38004 94.4631 9.70384 95.097 10.3512C95.7309 10.9985 96.0478 11.8149 96.0478 12.8019C96.0478 13.7802 95.7346 14.5975 95.1087 15.2523ZM96.1018 6.07677V7.50942H96.0538C95.6694 6.87793 95.0928 6.3964 94.3241 6.06511C93.6354 5.76519 92.8828 5.61523 92.0662 5.61523C90.0562 5.61523 88.3987 6.3217 87.0938 7.73464C85.8368 9.10009 85.2083 10.7891 85.2083 12.8018C85.2083 14.8457 85.8248 16.5469 87.0575 17.9043C88.3385 19.3014 90.0082 19.9998 92.0662 19.9998C92.8907 19.9998 93.6474 19.8534 94.3361 19.5619C95.1368 19.2225 95.7093 18.729 96.0538 18.0814H96.1018V19.5383H100.185V6.07677H96.1018Z" fill="white"/>
<path fill-rule="evenodd" clip-rule="evenodd" d="M110.932 19.5584V11.3985C110.932 10.3368 110.09 9.22937 108.711 9.22937C107.008 9.22937 106.391 10.5632 106.391 11.4637V19.5584H102.251V6.08943H106.11V7.52291H106.171C106.918 6.53541 108.355 5.63428 110.067 5.63428C113.159 5.63428 115.072 8.10247 115.072 10.4657V19.5584H110.932Z" fill="white"/>
<path fill-rule="evenodd" clip-rule="evenodd" d="M9.13188 19.5532C10.1845 19.5532 11.6191 18.9983 12.2884 17.3158C14.0095 12.9895 19.2533 0.0458984 19.2533 0.0458984H15.059L10.0644 12.4266L5.07457 0.0458984H0L7.8703 19.5532H9.13188Z" fill="white"/>
<path fill-rule="evenodd" clip-rule="evenodd" d="M77.5998 15.9532H73.7634V11.3184H77.525C79.2356 11.3184 79.9523 12.7177 79.9523 13.5569C79.9523 15.017 78.794 15.9532 77.5998 15.9532ZM73.7834 3.67145H76.7941C78.0611 3.67145 78.9853 4.59424 78.9853 5.69227C78.9853 6.92998 77.8536 7.71781 76.7941 7.71337H73.7834V3.67145ZM80.7931 9.09239C83.4632 7.67584 83.3011 5.26263 83.0271 3.92912C82.6846 2.2632 80.8653 0.0427151 76.7635 0.0665973H69.1169V19.5581H76.9022C81.9297 19.5581 84.227 16.7177 84.1625 13.6478C84.134 12.279 83.7338 9.98825 80.7931 9.09239Z" fill="white"/>
</svg>